<svg xmlns="http://www.w3.org/2000/svg" xmlns:xlink="http://www.w3.org/1999/xlink" width="25.917" height="24.763" viewBox="0 0 25.917 24.763"><defs><clipPath id="a"><path d="M133.06-346.822l2.1,6.478a1.74,1.74,0,0,0,1.654,1.2h6.816a1.222,1.222,0,0,1,1.164.845,1.222,1.222,0,0,1-.446,1.367l-5.512,4a1.74,1.74,0,0,0-.63,1.946l2.1,6.478a1.222,1.222,0,0,1-.442,1.37,1.222,1.222,0,0,1-1.439,0l-5.512-4a1.738,1.738,0,0,0-2.046,0l-5.512,4a1.224,1.224,0,0,1-1.437,0,1.224,1.224,0,0,1-.445-1.366l2.106-6.478a1.74,1.74,0,0,0-.632-1.946l-5.512-4A1.224,1.224,0,0,1,119-338.3a1.224,1.224,0,0,1,1.16-.846h6.812a1.738,1.738,0,0,0,1.654-1.2l2.106-6.478a1.224,1.224,0,0,1,1.164-.846A1.224,1.224,0,0,1,133.06-346.822Z" fill="none"/></clipPath><clipPath id="b"><path d="M0,0H375V-792H0Z" fill="none"/></clipPath></defs><g transform="translate(-118.94 347.668)" clip-path="url(#a)"><g clip-path="url(#b)"><path d="M113.94-352.668h35.917V-317.9H113.94Z" fill="#f7d008"/></g></g></svg>