<svg id="shopping-bag" xmlns="http://www.w3.org/2000/svg" width="9" height="9" viewBox="0 0 9 9">
  <path id="shopping-bag-2" data-name="shopping-bag" d="M3.35,2.9h6.3a.45.45,0,0,1,.45.45v6.3a.45.45,0,0,1-.45.45H3.35a.45.45,0,0,1-.45-.45V3.35A.45.45,0,0,1,3.35,2.9ZM2,3.35A1.35,1.35,0,0,1,3.35,2h6.3A1.35,1.35,0,0,1,11,3.35v6.3A1.35,1.35,0,0,1,9.65,11H3.35A1.35,1.35,0,0,1,2,9.65ZM6.5,6.5A2.506,2.506,0,0,1,4.25,3.8h.9A1.623,1.623,0,0,0,6.5,5.6,1.623,1.623,0,0,0,7.85,3.8h.9A2.506,2.506,0,0,1,6.5,6.5Z" transform="translate(-2 -2)" fill="#43d817" fill-rule="evenodd"/>
</svg>
